<?xml version="1.0" encoding="UTF-8" standalone="no"?>
<svg
   width="32"
   height="32"
   viewBox="0 0 438 438"
   preserveAspectRatio="xMidYMid meet"
   version="1.1"
   id="svg3"
   sodipodi:docname="favicon.svg"
   inkscape:version="1.4.4 (dcaf3e7d9e, 2026-05-05)"
   xmlns:inkscape="http://www.inkscape.org/namespaces/inkscape"
   xmlns:sodipodi="http://sodipodi.sourceforge.net/DTD/sodipodi-0.dtd"
   xmlns="http://www.w3.org/2000/svg"
   xmlns:svg="http://www.w3.org/2000/svg">
  <defs
     id="defs3" />
  <sodipodi:namedview
     id="namedview3"
     pagecolor="#ffffff"
     bordercolor="#666666"
     borderopacity="1.0"
     inkscape:showpageshadow="2"
     inkscape:pageopacity="0.0"
     inkscape:pagecheckerboard="0"
     inkscape:deskcolor="#d1d1d1"
     inkscape:zoom="25.09375"
     inkscape:cx="15.980075"
     inkscape:cy="16"
     inkscape:window-width="1920"
     inkscape:window-height="1011"
     inkscape:window-x="0"
     inkscape:window-y="0"
     inkscape:window-maximized="1"
     inkscape:current-layer="svg3" />
  <rect
     width="438"
     height="438"
     rx="86"
     fill="#fff7ed"
     id="rect1"
     style="fill:#fff4e6;fill-opacity:1" />
  <g
     transform="matrix(0.89331456,0,0,0.89331456,-365.2606,-241.95111)"
     id="g3">
    <path
       fill="#f7921a"
       d="M 829.865,365.145 C 799.86,333.54 681.176,523.72 665.767,583.711 c 0.539,1.069 1.08,2.16 1.629,3.224 1.427,2.592 3.728,6.763 6.687,12.09 20.391,36.804 71.74,128.675 79.603,135.162 7.009,5.776 -24.76,-40.547 -18.838,-60.5 11.317,14.326 20.33,25.092 23.248,27.007 0.377,0.239 0.658,0.366 0.819,0.392 2.156,0.291 -13.617,-18.257 -19.708,-33.662 2.867,-1.986 7.063,-2.954 13.002,-2.495 16.235,1.268 4.538,-3.534 -11.561,-15.4 2.757,-1.844 7.197,-2.689 13.863,-2.083 34.029,3.087 -55.325,-18.114 -51.573,-64.101 2.562,-27.143 24.404,-61.61 85.557,-104.283 0.06,-0.049 0.127,-0.092 0.194,-0.137 81.306,-56.843 51.851,-102.521 41.176,-113.78 z m -325.05,-42.137 c -13.195,8.168 -53.421,44.869 10.883,120.684 0.036,0.044 0.066,0.079 0.102,0.122 48.15,56.785 60.445,95.652 55.998,122.536 -8.128,45.411 -99.947,43.13 -66.254,48.819 6.58,1.11 10.673,3.061 12.854,5.542 -18.573,7.359 -31.127,9.033 -15.094,11.951 5.867,1.065 9.66,3.077 11.921,5.735 -9.824,13.322 -29.807,27.246 -27.648,27.504 0.159,0.027 0.453,-0.025 0.877,-0.167 3.319,-1.111 14.787,-9.213 29.383,-20.178 0.626,20.808 -41.916,57.485 -33.666,53.687 9.283,-4.274 82.663,-80.27 111.695,-110.541 4.054,-4.232 7.252,-7.578 9.28,-9.701 0.844,-0.927 1.675,-1.891 2.51,-2.838 C 608.093,514.215 541.9,300.091 504.815,323.008 Z"
       id="path1" />
    <path
       fill="#c4161d"
       d="m 822.701,419.566 c -0.998,-0.539 -2.088,-0.89 -3.281,-1.055 -32.262,-4.239 -134.22,130.642 -151.371,159.959 -0.847,1.757 -1.829,4.089 -2.283,5.24 3.219,4.349 42.591,56.426 69.051,89.935 0.774,-2.608 2.164,-4.726 4.379,-6.244 -3.01,-7.617 -3.642,-14.472 1.441,-17.885 -17.747,-13.086 -40.827,-34.775 -37.701,-66.437 0.046,-0.55 0.113,-1.12 0.189,-1.69 3.423,-26.823 25.677,-60.674 85.368,-102.329 0.207,-0.13 0.387,-0.257 0.58,-0.393 23.209,-16.283 37.533,-31.861 45.838,-45.993 -3.405,-6.448 -8.447,-11.029 -12.21,-13.108 z M 501.285,377.273 c -1.192,-0.15 -2.337,-0.085 -3.432,0.175 -4.175,1.051 -10.236,4.186 -15.166,9.564 4.416,15.774 14.286,34.503 32.572,56.161 0.148,0.181 0.291,0.349 0.438,0.519 47.076,55.497 59.955,93.901 56.415,120.708 -0.08,0.571 -0.171,1.141 -0.249,1.701 -5.076,31.394 -32.954,46.475 -53.446,54.623 4.049,4.572 1.686,11.04 -3.167,17.641 1.741,2.036 2.545,4.445 2.637,7.149 34.151,-25.646 85.56,-65.959 89.768,-69.351 -0.137,-1.232 -0.493,-3.717 -0.855,-5.631 -9.107,-32.726 -73.233,-189.121 -105.515,-193.259 z"
       id="path2" />
    <path
       fill="#161315"
       d="m 822.772,336.888 c -40.5,-17.267 -120.171,115.38 -157.489,230.333 0,0 -11.806,-29.822 -12.925,-64.744 -0.658,-20.292 4.848,-14.112 7.099,-12.757 l 0.81,-6.045 -10.674,-1.52 v -0.008 l -11.041,-1.286 -0.784,6.052 c 2.531,-0.745 9.426,-5.314 3.611,14.143 -10.008,33.472 -29.039,59.3 -29.039,59.3 -6.722,-120.667 -49.862,-269.23 -93.439,-262.854 -15.532,2.271 -71.516,34.535 -41.326,96.872 -0.011,0.007 -0.026,0.033 -0.032,0.053 0.424,0.885 0.918,1.785 1.387,2.681 0.331,0.631 0.621,1.235 0.962,1.867 1.101,2.039 2.307,4.095 3.601,6.192 0.377,0.611 0.788,1.245 1.206,1.856 1.044,1.668 2.19,3.349 3.377,5.049 0.458,0.637 0.896,1.296 1.37,1.945 1.599,2.208 3.3,4.448 5.108,6.705 0.357,0.451 0.753,0.902 1.126,1.354 1.573,1.905 3.228,3.846 4.965,5.811 0.6,0.671 1.202,1.35 1.823,2.029 2.176,2.379 4.426,4.801 6.854,7.229 2.277,2.289 4.319,4.444 6.478,6.669 -0.036,-0.043 -0.066,-0.078 -0.102,-0.122 -64.304,-75.815 -24.077,-112.516 -10.883,-120.684 37.085,-22.917 103.278,191.207 102.84,253.155 14.433,-16.315 27.572,-35.566 37.573,-61.753 2.979,27.878 10.756,49.837 20.538,69.3 15.41,-59.99 134.094,-250.17 164.099,-218.565 10.674,11.26 40.13,56.938 -41.178,113.78 2.505,-1.51 5.047,-3.022 7.663,-4.556 2.969,-1.749 5.745,-3.493 8.465,-5.25 0.778,-0.506 1.531,-1 2.295,-1.5 2.181,-1.461 4.274,-2.904 6.27,-4.349 0.474,-0.344 0.967,-0.677 1.431,-1.026 2.341,-1.724 4.553,-3.453 6.666,-5.175 0.628,-0.509 1.201,-1.029 1.823,-1.527 1.58,-1.347 3.112,-2.689 4.564,-4.018 0.539,-0.502 1.109,-1.004 1.623,-1.495 1.789,-1.694 3.483,-3.376 5.073,-5.073 0.484,-0.521 0.916,-1.033 1.406,-1.566 0.673,-0.734 1.39,-1.49 2.032,-2.241 -0.01,-0.012 -0.026,-0.043 -0.026,-0.063 45.126,-52.556 -0.772,-98.038 -15.2,-104.198 z"
       id="path3" />
  </g>
</svg>
