<svg width="17" height="17" viewBox="0 0 17 17" fill="none" xmlns="http://www.w3.org/2000/svg">
  <path fill-rule="evenodd" clip-rule="evenodd" d="M13.984 3.38372C12.7273 2.0368 11.0189 1.19946 9.18452 1.03133C7.35011 0.863213 5.51795 1.37609 4.03742 2.47216C2.55689 3.56823 1.53156 5.17086 1.15687 6.97445C0.848946 8.45623 0.998055 9.98855 1.57203 11.3727L2.0409 11.0359L2.30445 13.6205L0.023568 12.4851L0.740548 11.97C0.0142296 10.346 -0.187125 8.52725 0.177743 6.77102C0.602425 4.72695 1.76447 2.91067 3.44245 1.66845C5.12037 0.426232 7.19679 -0.155036 9.27577 0.0354848C11.3548 0.226037 13.291 1.17501 14.7152 2.70153L13.984 3.38372ZM12.2641 9.01824C12.2858 8.85574 12.2966 8.68783 12.2966 8.50906C12.2966 8.33575 12.2858 8.16241 12.2587 7.9999L13.3583 7.14407C13.4558 7.06823 13.4829 6.92199 13.4233 6.81365L12.3832 5.01531C12.3182 4.89614 12.1829 4.85824 12.0637 4.89614L10.7691 5.41616C10.4983 5.21032 10.2112 5.03698 9.89161 4.90698L9.6966 3.53115C9.67494 3.40115 9.5666 3.30907 9.43659 3.30907H7.35664C7.22663 3.30907 7.12367 3.40115 7.102 3.53115L6.90705 4.90698C6.58747 5.03698 6.29493 5.21572 6.02955 5.41616L4.73493 4.89614C4.61579 4.85281 4.48036 4.89614 4.41535 5.01531L3.38075 6.81365C3.3158 6.92739 3.33747 7.06823 3.44575 7.14407L4.54536 7.9999C4.51826 8.16241 4.49659 8.34115 4.49659 8.50906C4.49659 8.67699 4.50745 8.85574 4.53455 9.01824L3.43494 9.87408C3.33747 9.94991 3.31037 10.0962 3.36994 10.2045L4.40992 12.0028C4.47492 12.122 4.61036 12.1599 4.7295 12.122L6.02412 11.602C6.29493 11.8078 6.58204 11.9812 6.90162 12.1111L7.09663 13.487C7.12367 13.617 7.22663 13.7091 7.35664 13.7091H9.43659C9.5666 13.7091 9.67494 13.617 9.69117 13.487L9.88618 12.1111C10.2058 11.9812 10.4983 11.8078 10.7637 11.602L12.0583 12.122C12.1774 12.1653 12.3129 12.122 12.3779 12.0028L13.4179 10.2045C13.4829 10.0853 13.4558 9.94991 13.3529 9.87408L12.2641 9.01824ZM8.39661 10.4591C7.32411 10.4591 6.4466 9.58157 6.4466 8.50906C6.4466 7.43658 7.32411 6.55907 8.39661 6.55907C9.46912 6.55907 10.3466 7.43658 10.3466 8.50906C10.3466 9.58157 9.46912 10.4591 8.39661 10.4591ZM7.93153 15.9783C6.09467 15.8386 4.37354 15.0279 3.0962 13.7006L2.37562 14.394C3.82331 15.8982 5.774 16.8171 7.85566 16.9754C9.93739 17.1337 12.0045 16.5203 13.663 15.2523C15.3215 13.9842 16.4553 12.1501 16.8482 10.0997C17.1748 8.39538 16.9706 6.64068 16.2766 5.06814L16.9826 4.626L14.7783 3.34823L14.8774 5.94442L15.4191 5.60519C15.9851 6.95818 16.1451 8.45565 15.8661 9.91146C15.5194 11.7207 14.519 13.339 13.0556 14.4578C11.5922 15.5767 9.76832 16.1179 7.93153 15.9783Z" fill="black"/>
</svg>
