<svg width="24" height="24" viewBox="0 0 24 24" fill="none" xmlns="http://www.w3.org/2000/svg">
  <path fill-rule="evenodd" clip-rule="evenodd" d="M4.01 4C4.01 2.9 4.9 2 6 2H14L20 8V20C20 21.1 19.1 22 18 22H5.99C4.89 22 4 21.1 4 20L4.01 4ZM13 3.5V9H18.5L13 3.5ZM9.12598 18.2939H7.25977V14.7344H6.38086V19H9.12598V18.2939ZM12.7266 18.0684C12.875 17.752 12.9492 17.3838 12.9492 16.9639V16.7734C12.9492 16.3555 12.873 15.9873 12.7207 15.6689C12.5703 15.3486 12.3564 15.1035 12.0791 14.9336C11.8037 14.7617 11.4883 14.6758 11.1328 14.6758C10.7773 14.6758 10.4609 14.7617 10.1836 14.9336C9.9082 15.1035 9.69434 15.3486 9.54199 15.6689C9.3916 15.9873 9.31641 16.3564 9.31641 16.7764V16.9873C9.31836 17.3975 9.39551 17.7607 9.54785 18.0771C9.7002 18.3916 9.91504 18.6338 10.1924 18.8037C10.4697 18.9736 10.7852 19.0586 11.1387 19.0586C11.4961 19.0586 11.8125 18.9727 12.0879 18.8008C12.3652 18.6289 12.5781 18.3848 12.7266 18.0684ZM11.8184 15.751C11.9785 15.9834 12.0586 16.3232 12.0586 16.7705V16.9785C12.0566 17.4219 11.9766 17.7598 11.8184 17.9922C11.6602 18.2227 11.4336 18.3379 11.1387 18.3379C10.8379 18.3379 10.6074 18.2178 10.4473 17.9775C10.2871 17.7373 10.207 17.3994 10.207 16.9639V16.7559C10.209 16.3125 10.29 15.9766 10.4502 15.748C10.6104 15.5176 10.8379 15.4023 11.1328 15.4023C11.4297 15.4023 11.6582 15.5186 11.8184 15.751ZM16.292 18.9033C16.5811 18.7979 16.8047 18.6504 16.9629 18.4609V16.7588H15.2842V17.4062H16.084V18.1416C15.9434 18.2822 15.708 18.3525 15.3779 18.3525C15.0498 18.3525 14.8008 18.2383 14.6309 18.0098C14.4609 17.7812 14.376 17.4434 14.376 16.9961V16.7236C14.3779 16.2803 14.457 15.9463 14.6133 15.7217C14.7695 15.4971 14.9971 15.3848 15.2959 15.3848C15.5303 15.3848 15.7139 15.4414 15.8467 15.5547C15.9814 15.668 16.0684 15.8467 16.1074 16.0908H16.9629C16.9102 15.6299 16.7412 15.2793 16.4561 15.0391C16.1709 14.7969 15.7754 14.6758 15.2695 14.6758C14.9062 14.6758 14.5889 14.7588 14.3174 14.9248C14.0479 15.0889 13.8408 15.3271 13.6963 15.6396C13.5537 15.9502 13.4824 16.3184 13.4824 16.7441V17.0342C13.4863 17.4482 13.5635 17.8086 13.7139 18.1152C13.8662 18.4219 14.0811 18.6562 14.3584 18.8184C14.6377 18.9785 14.9619 19.0586 15.3311 19.0586C15.6826 19.0586 16.0029 19.0068 16.292 18.9033Z" fill="black"/>
</svg>
