<svg enable-background="new 0 0 41 32" height="32" viewBox="0 0 41 32" width="41" xmlns="http://www.w3.org/2000/svg"><g fill="#828282"><path d="m9.239 31.927c.009.006.021.003.03.009.073.037.149.064.231.064.044 0 .088-.006.132-.018l10.868-2.966 10.868 2.966c.044.012.088.018.132.018.082 0 .158-.027.23-.065.01-.005.021-.003.03-.009l9-5.5c.191-.117.281-.348.22-.563l-4.984-17.5c-.041-.147-.148-.267-.29-.326-.142-.057-.301-.048-.436.026l-4.962 2.784c-.24.135-.326.44-.191.681.135.242.439.327.682.191l4.409-2.475 4.707 16.526-8.015 4.899-1.904-15.231c-.034-.275-.293-.466-.559-.434-.273.034-.468.284-.434.558l1.907 15.259-9.91-2.705v-2.73c0-.276-.224-.5-.5-.5s-.5.224-.5.5v2.73l-9.911 2.705 1.907-15.259c.034-.274-.16-.524-.434-.558-.272-.032-.524.159-.559.434l-1.903 15.231-8.015-4.898 4.707-16.525 4.409 2.475c.242.134.546.049.682-.191.135-.241.049-.545-.191-.681l-4.963-2.785c-.133-.075-.292-.085-.435-.026-.142.059-.249.178-.29.326l-4.984 17.5c-.062.216.028.446.22.563z"/><path d="m20.161 23.368c.096.088.217.132.339.132.12 0 .24-.043.336-.129.333-.303 8.164-7.489 8.164-14.871 0-4.767-3.733-8.5-8.5-8.5s-8.5 3.733-8.5 8.5c0 7.254 7.828 14.56 8.161 14.868zm.339-22.368c4.275 0 7.5 3.224 7.5 7.5 0 6.097-5.993 12.337-7.497 13.807-1.501-1.487-7.503-7.809-7.503-13.807 0-4.276 3.225-7.5 7.5-7.5z"/><path d="m25 8.5c0-2.481-2.019-4.5-4.5-4.5s-4.5 2.019-4.5 4.5 2.019 4.5 4.5 4.5 4.5-2.019 4.5-4.5zm-4.5 3.5c-1.93 0-3.5-1.57-3.5-3.5s1.57-3.5 3.5-3.5 3.5 1.57 3.5 3.5-1.57 3.5-3.5 3.5z"/></g></svg>