<svg viewBox="0 0 576 512" xmlns="http://www.w3.org/2000/svg"><path d="m288 0c-69.59 0-126 56.41-126 126 0 56.26 82.35 158.8 113.9 196.02 6.39 7.54 17.82 7.54 24.2 0 31.55-37.22 113.9-139.76 113.9-196.02 0-69.59-56.41-126-126-126zm0 168c-23.2 0-42-18.8-42-42s18.8-42 42-42 42 18.8 42 42-18.8 42-42 42zm-267.88 47.95a32.006 32.006 0 0 0 -20.12 29.71v250.32c0 11.32 11.43 19.06 21.94 14.86l138.06-62.84v-233.08c-8.84-15.98-16.07-31.54-21.25-46.42zm267.88 143.72c-14.07 0-27.38-6.18-36.51-16.96-19.66-23.2-40.57-49.62-59.49-76.72v182l192 64v-245.99c-18.92 27.09-39.82 53.52-59.49 76.72-9.13 10.77-22.44 16.95-36.51 16.95zm266.06-198.51-138.06 62.84v288l139.88-55.95a31.996 31.996 0 0 0 20.12-29.71v-250.32c0-11.32-11.43-19.06-21.94-14.86z"/></svg>