<?xml version="1.0" encoding="UTF-8" standalone="no"?>
<svg
   version="1.1"
   id="Capa_1"
   x="0px"
   y="0px"
   viewBox="0 0 750 437.37796"
   xml:space="preserve"
   width="750"
   height="437.37796"
   xmlns:xlink="http://www.w3.org/1999/xlink"
   xmlns="http://www.w3.org/2000/svg"
   xmlns:svg="http://www.w3.org/2000/svg"><defs
   id="defs15" />
<switch
   id="switch15"
   transform="translate(-165,-297.30359)">
	<g
   id="g15">
		<g
   id="g14">
			<path
   style="fill:#f59c00"
   d="M 829.865,365.145 C 799.86,333.54 681.176,523.72 665.767,583.711 c 0.539,1.069 1.08,2.16 1.629,3.224 1.427,2.592 3.728,6.763 6.687,12.09 20.391,36.804 71.74,128.675 79.603,135.162 7.009,5.776 -24.76,-40.547 -18.838,-60.5 11.317,14.326 20.33,25.092 23.248,27.007 0.377,0.239 0.658,0.366 0.819,0.392 2.156,0.291 -13.617,-18.257 -19.708,-33.662 2.867,-1.986 7.063,-2.954 13.002,-2.495 16.235,1.268 4.538,-3.534 -11.561,-15.4 2.757,-1.844 7.197,-2.689 13.863,-2.083 34.029,3.087 -55.325,-18.114 -51.573,-64.101 2.562,-27.143 24.404,-61.61 85.557,-104.283 0.06,-0.049 0.127,-0.092 0.194,-0.137 81.306,-56.843 51.851,-102.521 41.176,-113.78 z m -325.05,-42.137 c -13.195,8.168 -53.421,44.869 10.883,120.684 0.036,0.044 0.066,0.079 0.102,0.122 48.15,56.785 60.445,95.652 55.998,122.536 -8.128,45.411 -99.947,43.13 -66.254,48.819 6.58,1.11 10.673,3.061 12.854,5.542 -18.573,7.359 -31.127,9.033 -15.094,11.951 5.867,1.065 9.66,3.077 11.921,5.735 -9.824,13.322 -29.807,27.246 -27.648,27.504 0.159,0.027 0.453,-0.025 0.877,-0.167 3.319,-1.111 14.787,-9.213 29.383,-20.178 0.626,20.808 -41.916,57.485 -33.666,53.687 9.283,-4.274 82.663,-80.27 111.695,-110.541 4.054,-4.232 7.252,-7.578 9.28,-9.701 0.844,-0.927 1.675,-1.891 2.51,-2.838 C 608.093,514.215 541.9,300.091 504.815,323.008 Z"
   id="path1" />
			<path
   style="fill:#dd3418"
   d="m 822.701,419.566 c -0.998,-0.539 -2.088,-0.89 -3.281,-1.055 -32.262,-4.239 -134.22,130.642 -151.371,159.959 -0.847,1.757 -1.829,4.089 -2.283,5.24 3.219,4.349 42.591,56.426 69.051,89.935 0.774,-2.608 2.164,-4.726 4.379,-6.244 -3.01,-7.617 -3.642,-14.472 1.441,-17.885 -17.747,-13.086 -40.827,-34.775 -37.701,-66.437 0.046,-0.55 0.113,-1.12 0.189,-1.69 3.423,-26.823 25.677,-60.674 85.368,-102.329 0.207,-0.13 0.387,-0.257 0.58,-0.393 23.209,-16.283 37.533,-31.861 45.838,-45.993 -3.405,-6.448 -8.447,-11.029 -12.21,-13.108 z M 501.285,377.273 c -1.192,-0.15 -2.337,-0.085 -3.432,0.175 -4.175,1.051 -10.236,4.186 -15.166,9.564 4.416,15.774 14.286,34.503 32.572,56.161 0.148,0.181 0.291,0.349 0.438,0.519 47.076,55.497 59.955,93.901 56.415,120.708 -0.08,0.571 -0.171,1.141 -0.249,1.701 -5.076,31.394 -32.954,46.475 -53.446,54.623 4.049,4.572 1.686,11.04 -3.167,17.641 1.741,2.036 2.545,4.445 2.637,7.149 34.151,-25.646 85.56,-65.959 89.768,-69.351 -0.137,-1.232 -0.493,-3.717 -0.855,-5.631 -9.107,-32.726 -73.233,-189.121 -105.515,-193.259 z"
   id="path2" />
			<g
   id="g13">
				<path
   style="fill:#3c3c3b"
   d="m 822.772,336.888 c -40.5,-17.267 -120.171,115.38 -157.489,230.333 0,0 -11.806,-29.822 -12.925,-64.744 -0.658,-20.292 4.848,-14.112 7.099,-12.757 l 0.81,-6.045 -10.674,-1.52 v -0.008 l -11.041,-1.286 -0.784,6.052 c 2.531,-0.745 9.426,-5.314 3.611,14.143 -10.008,33.472 -29.039,59.3 -29.039,59.3 -6.722,-120.667 -49.862,-269.23 -93.439,-262.854 -15.532,2.271 -71.516,34.535 -41.326,96.872 -0.011,0.007 -0.026,0.033 -0.032,0.053 0.424,0.885 0.918,1.785 1.387,2.681 0.331,0.631 0.621,1.235 0.962,1.867 1.101,2.039 2.307,4.095 3.601,6.192 0.377,0.611 0.788,1.245 1.206,1.856 1.044,1.668 2.19,3.349 3.377,5.049 0.458,0.637 0.896,1.296 1.37,1.945 1.599,2.208 3.3,4.448 5.108,6.705 0.357,0.451 0.753,0.902 1.126,1.354 1.573,1.905 3.228,3.846 4.965,5.811 0.6,0.671 1.202,1.35 1.823,2.029 2.176,2.379 4.426,4.801 6.854,7.229 2.277,2.289 4.319,4.444 6.478,6.669 -0.036,-0.043 -0.066,-0.078 -0.102,-0.122 -64.304,-75.815 -24.077,-112.516 -10.883,-120.684 37.085,-22.917 103.278,191.207 102.84,253.155 14.433,-16.315 27.572,-35.566 37.573,-61.753 2.979,27.878 10.756,49.837 20.538,69.3 15.41,-59.99 134.094,-250.17 164.099,-218.565 10.674,11.26 40.13,56.938 -41.178,113.78 2.505,-1.51 5.047,-3.022 7.663,-4.556 2.969,-1.749 5.745,-3.493 8.465,-5.25 0.778,-0.506 1.531,-1 2.295,-1.5 2.181,-1.461 4.274,-2.904 6.27,-4.349 0.474,-0.344 0.967,-0.677 1.431,-1.026 2.341,-1.724 4.553,-3.453 6.666,-5.175 0.628,-0.509 1.201,-1.029 1.823,-1.527 1.58,-1.347 3.112,-2.689 4.564,-4.018 0.539,-0.502 1.109,-1.004 1.623,-1.495 1.789,-1.694 3.483,-3.376 5.073,-5.073 0.484,-0.521 0.916,-1.033 1.406,-1.566 0.673,-0.734 1.39,-1.49 2.032,-2.241 -0.01,-0.012 -0.026,-0.043 -0.026,-0.063 45.126,-52.556 -0.772,-98.038 -15.2,-104.198 z"
   id="path3" />
				<g
   id="g12">
					<path
   style="fill:#3c3c3b"
   d="m 560.503,417.662 c -2.373,-0.181 -4.401,0.498 -6.111,2.098 -1.737,1.565 -2.688,3.512 -2.863,5.747 -0.178,2.356 0.454,4.38 1.925,6.099 1.452,1.729 3.352,2.663 5.73,2.865 2.232,0.168 4.172,-0.467 5.766,-1.948 1.609,-1.478 2.47,-3.402 2.653,-5.753 0.173,-2.229 -0.372,-4.289 -1.722,-6.094 -1.331,-1.848 -3.142,-2.828 -5.378,-3.014 z"
   id="path4" />
					<g
   id="g8">
						<path
   style="fill:#3c3c3b"
   d="m 178.19,509.484 c 0.113,4.82 0.871,10.236 2.257,16.253 1.38,6.024 3.635,11.83 6.767,17.428 3.126,5.601 7.282,10.541 12.466,14.809 5.174,4.277 11.617,7.016 19.322,8.219 7.226,1.08 13.658,0.966 19.321,-0.362 5.658,-1.32 10.598,-3.488 14.804,-6.503 4.222,-3.004 7.766,-6.589 10.664,-10.746 2.883,-4.155 5.261,-8.515 7.13,-13.087 1.864,-4.574 3.224,-9.152 4.059,-13.729 0.845,-4.576 1.324,-8.729 1.446,-12.461 0.117,-9.271 -1.054,-17.426 -3.518,-24.469 -2.47,-7.046 -5.841,-13.001 -10.114,-17.88 -4.273,-4.877 -9.274,-8.67 -14.988,-11.38 -5.719,-2.704 -11.83,-4.361 -18.338,-4.965 -6.733,0 -13.241,1.237 -19.494,3.702 -6.26,2.471 -11.775,6.173 -16.52,11.107 -4.762,4.938 -8.556,11.079 -11.382,18.422 -2.828,7.342 -4.132,15.89 -3.882,25.642 z M 165,509.125 c 0,-10.112 1.446,-19.294 4.339,-27.54 2.888,-8.249 6.916,-15.32 12.1,-21.222 5.169,-5.9 11.316,-10.531 18.42,-13.906 7.094,-3.368 14.804,-5.235 23.11,-5.596 9.396,-0.724 18.12,0.361 26.191,3.249 8.067,2.89 15.079,7.313 21.037,13.274 5.964,5.958 10.624,13.305 14,22.034 3.365,8.728 5.051,18.572 5.051,29.526 0,10.115 -1.502,19.294 -4.511,27.539 -3.015,8.249 -7.166,15.328 -12.463,21.219 -5.296,5.903 -11.56,10.507 -18.786,13.818 -7.221,3.316 -15.049,5.021 -23.472,5.144 -9.151,0.6 -17.671,-0.571 -25.56,-3.515 -7.883,-2.953 -14.743,-7.41 -20.578,-13.373 -5.847,-5.958 -10.445,-13.211 -13.817,-21.756 C 166.686,529.476 165,519.843 165,509.125 Z"
   id="path5" />
						<path
   style="fill:#3c3c3b"
   d="m 345.951,492.148 c -4.936,0 -9.121,1.208 -12.548,3.611 -3.428,2.412 -6.203,5.479 -8.307,9.213 -2.108,3.733 -3.61,7.855 -4.518,12.37 -0.901,4.512 -1.349,8.823 -1.349,12.911 0,4.095 0.418,8.368 1.258,12.823 0.845,4.456 2.322,8.55 4.42,12.278 2.113,3.734 4.883,6.805 8.316,9.207 3.428,2.414 7.67,3.617 12.727,3.617 5.301,0 9.666,-1.141 13.093,-3.433 3.432,-2.286 6.174,-5.265 8.225,-8.942 2.041,-3.667 3.453,-7.761 4.241,-12.278 0.775,-4.513 1.167,-8.938 1.167,-13.272 0,-4.333 -0.392,-8.759 -1.167,-13.274 -0.788,-4.516 -2.2,-8.608 -4.241,-12.281 -2.052,-3.671 -4.793,-6.681 -8.225,-9.028 -3.426,-2.347 -7.791,-3.522 -13.092,-3.522 z m -51.47,120.098 c 1.808,-0.246 3.854,-0.577 6.141,-0.993 2.287,-0.428 4.1,-1.599 5.424,-3.524 v -115.04 c -1.324,-1.92 -3.077,-3.094 -5.246,-3.52 -2.164,-0.423 -4.149,-0.751 -5.957,-0.992 v -4.875 h 24.388 v 16.072 h 0.361 c 3.011,-5.781 6.825,-10.025 11.465,-12.735 4.629,-2.704 10.205,-4.063 16.703,-4.063 6.142,0 11.585,1.237 16.342,3.705 4.757,2.466 8.734,5.838 11.923,10.112 3.188,4.274 5.602,9.331 7.226,15.169 1.619,5.842 2.434,12.066 2.434,18.692 0,6.86 -0.723,13.186 -2.165,18.961 -1.447,5.779 -3.702,10.775 -6.773,14.992 -3.071,4.216 -7.018,7.526 -11.834,9.93 -4.813,2.404 -10.533,3.616 -17.153,3.616 -4.452,0 -8.336,-0.723 -11.647,-2.168 -3.31,-1.448 -6.136,-3.128 -8.485,-5.058 -2.346,-1.925 -4.19,-3.887 -5.51,-5.872 -1.323,-1.986 -2.169,-3.513 -2.526,-4.602 h -0.361 v 56.345 h -24.749 v -4.152 z"
   id="path6" />
						<path
   style="fill:#3c3c3b"
   d="m 433.906,490.886 c -4.095,0 -7.766,0.931 -11.015,2.796 -3.25,1.869 -5.995,4.275 -8.221,7.226 -2.225,2.951 -3.942,6.26 -5.143,9.93 -1.208,3.676 -1.814,7.316 -1.814,10.928 h 48.951 c 0,-3.851 -0.428,-7.645 -1.269,-11.378 -0.841,-3.73 -2.17,-7.043 -3.972,-9.93 -1.809,-2.893 -4.156,-5.205 -7.044,-6.958 -2.89,-1.74 -6.379,-2.614 -10.473,-2.614 z m 24.745,81.628 c -2.053,0.722 -4.701,1.715 -7.945,2.979 -3.258,1.263 -7.532,1.893 -12.828,1.893 -6.743,0 -12.855,-0.962 -18.33,-2.886 -5.478,-1.926 -10.112,-4.904 -13.907,-8.938 -3.794,-4.035 -6.706,-9.146 -8.754,-15.35 -2.051,-6.201 -3.01,-13.575 -2.898,-22.121 0.122,-6.866 1.239,-13.124 3.347,-18.785 2.108,-5.657 4.938,-10.567 8.488,-14.719 3.546,-4.153 7.766,-7.369 12.645,-9.66 4.869,-2.285 10.14,-3.432 15.802,-3.432 6.254,0 11.672,1.174 16.251,3.522 4.573,2.347 8.31,5.688 11.193,10.024 2.892,4.334 4.997,9.54 6.321,15.619 1.323,6.083 1.929,12.915 1.807,20.498 h -62.308 c -0.361,7.589 0.575,14.147 2.806,19.688 2.226,5.536 5.566,9.838 10.023,12.91 4.445,3.07 9.899,4.908 16.34,5.511 6.439,0.605 13.757,-0.179 21.945,-2.349 v 5.596 z"
   id="path7" />
						<path
   style="fill:#3c3c3b"
   d="m 555.085,566.549 c 1.319,1.935 3.126,3.106 5.418,3.524 2.281,0.423 4.327,0.753 6.135,0.992 v 4.519 H 541.9 V 520.14 c 0,-8.668 -1.656,-15.53 -4.971,-20.587 -3.311,-5.057 -8.821,-7.582 -16.521,-7.582 -5.175,0 -9.488,1.109 -12.91,3.337 -3.432,2.228 -6.208,5.026 -8.311,8.397 -2.104,3.372 -3.584,7.132 -4.425,11.29 -0.846,4.153 -1.264,8.093 -1.264,11.825 v 48.579 H 480.497 V 493.05 c -1.33,-1.925 -3.132,-3.098 -5.424,-3.523 -2.286,-0.42 -4.334,-0.749 -6.136,-0.993 v -5.235 h 24.383 v 16.973 c 0.841,-2.047 2.079,-4.122 3.697,-6.228 1.63,-2.106 3.673,-4.036 6.136,-5.779 2.471,-1.745 5.424,-3.159 8.856,-4.242 3.432,-1.085 7.43,-1.628 12.009,-1.628 11.315,0 19.321,2.591 24.016,7.766 4.695,5.179 7.049,12.823 7.049,22.935 v 53.453 z"
   id="path8" />
					</g>
					<path
   style="fill:#3c3c3b"
   d="m 758.273,483.301 v 92.283 h -13.184 v -82.896 c -1.324,-1.92 -3.125,-3.094 -5.418,-3.52 -2.287,-0.423 -4.33,-0.751 -6.137,-0.992 v -4.875 z"
   id="path9" />
					<path
   style="fill:#3c3c3b"
   d="m 828.213,551.924 c -1.684,5.778 -4.542,10.45 -8.575,13.993 -4.038,3.555 -8.637,6.117 -13.818,7.68 -5.173,1.563 -10.536,2.138 -16.071,1.716 -5.536,-0.424 -10.594,-1.655 -15.167,-3.702 v -5.781 c 2.766,1.442 6.412,2.378 10.924,2.796 4.513,0.428 8.938,0.092 13.277,-0.988 4.33,-1.09 8.062,-3.014 11.194,-5.785 3.127,-2.765 4.689,-6.614 4.689,-11.551 0,-3.615 -1.078,-6.565 -3.249,-8.849 -2.158,-2.293 -4.898,-4.248 -8.214,-5.872 -3.31,-1.624 -6.89,-3.163 -10.746,-4.604 -3.856,-1.447 -7.436,-3.163 -10.746,-5.148 -3.31,-1.987 -6.05,-4.362 -8.214,-7.135 -2.165,-2.767 -3.255,-6.375 -3.255,-10.834 0,-4.452 0.784,-8.367 2.353,-11.737 1.563,-3.37 3.697,-6.141 6.407,-8.311 2.708,-2.166 5.871,-3.788 9.481,-4.873 3.611,-1.082 7.462,-1.627 11.557,-1.627 5.535,0 9.936,0.304 13.188,0.904 3.245,0.606 5.958,1.326 8.123,2.166 l -0.178,5.417 c -4.7,-1.922 -9.305,-3.005 -13.816,-3.249 -4.518,-0.237 -8.55,0.392 -12.1,1.896 -3.555,1.508 -6.411,3.883 -8.576,7.133 -2.175,3.248 -3.253,7.346 -3.253,12.281 0,2.77 1.182,5.059 3.523,6.862 2.348,1.806 5.266,3.463 8.755,4.967 3.492,1.508 7.226,3.043 11.203,4.601 3.967,1.568 7.608,3.524 10.923,5.877 3.31,2.343 5.984,5.235 8.037,8.661 2.044,3.44 2.829,7.799 2.344,13.096 z"
   id="path10" />
					<path
   style="fill:#3c3c3b"
   d="m 902.171,473.91 c 0,-3.008 -0.539,-5.958 -1.62,-8.849 -1.08,-2.892 -2.684,-5.446 -4.786,-7.677 -2.108,-2.225 -4.726,-4 -7.859,-5.326 -3.125,-1.324 -6.676,-1.989 -10.653,-1.989 h -28.528 v 50.568 h 26.363 c 3.85,0 7.436,-0.69 10.74,-2.078 3.316,-1.383 6.168,-3.277 8.583,-5.687 2.408,-2.406 4.307,-5.24 5.687,-8.49 1.386,-3.251 2.073,-6.739 2.073,-10.472 z m -53.446,39.727 v 62.125 H 835.54 V 448.989 c -1.445,-1.686 -3.259,-2.74 -5.418,-3.163 -2.169,-0.419 -4.098,-0.751 -5.781,-0.99 v -4.879 h 55.622 c 5.535,0 10.475,0.931 14.803,2.801 4.344,1.866 8.011,4.363 11.022,7.491 3.014,3.134 5.295,6.803 6.858,11.017 1.575,4.214 2.354,8.732 2.354,13.547 0,4.572 -0.779,9.059 -2.354,13.452 -1.563,4.396 -3.727,8.397 -6.498,12.008 -2.77,3.614 -6.136,6.623 -10.114,9.032 -3.973,2.409 -8.371,3.853 -13.174,4.332 z"
   id="path11" />
					<path
   style="fill:#3c3c3b"
   d="m 753.126,442.975 c -2.374,-0.181 -4.406,0.506 -6.127,2.104 -1.731,1.56 -2.673,3.51 -2.852,5.743 -0.184,2.354 0.449,4.383 1.916,6.101 1.451,1.726 3.365,2.671 5.734,2.863 2.23,0.165 4.171,-0.464 5.759,-1.946 1.61,-1.482 2.486,-3.402 2.664,-5.753 0.178,-2.227 -0.372,-4.289 -1.722,-6.092 -1.339,-1.852 -3.147,-2.834 -5.372,-3.02 z"
   id="path12" />
				</g>
			</g>
		</g>
	</g>
</switch>
</svg>
