<svg width="19" height="19" viewBox="0 0 19 19" fill="none" xmlns="http://www.w3.org/2000/svg">
<path fill-rule="evenodd" clip-rule="evenodd" d="M0 7.26422L9.5748 0L19 7.26422V15.5591H17.4646C16.8872 11.7201 13.5747 8.7769 9.5748 8.7769C5.5749 8.7769 2.26243 11.7201 1.68497 15.5591H0V7.26422Z" fill="black"/>
<path d="M9.57483 14.3623C10.6769 14.3623 11.5696 13.4697 11.5696 12.3676C11.5696 11.2655 10.6769 10.3728 9.57483 10.3728C8.47273 10.3728 7.58008 11.2655 7.58008 12.3676C7.58008 13.4697 8.47273 14.3623 9.57483 14.3623ZM9.57483 15.3597C8.24333 15.3597 5.58533 16.0279 5.58533 17.3544V18.3518H13.5643V17.3544C13.5643 16.0279 10.9063 15.3597 9.57483 15.3597Z" fill="black"/>
</svg>
