<svg width="24" height="24" viewBox="0 0 24 24" fill="none" xmlns="http://www.w3.org/2000/svg">
<path fill-rule="evenodd" clip-rule="evenodd" d="M16 8C16 10.21 14.21 12 12 12C9.79 12 8 10.21 8 8C8 5.79 9.79 4 12 4C14.21 4 16 5.79 16 8ZM4 18C4 15.34 9.33 14 12 14C12.5596 14 13.2362 14.0589 13.956 14.1764C12.9967 14.92 12.35 16.057 12.2693 17.3637C12.2096 18.3308 12.4691 19.2438 12.9568 20H4V18Z" fill="black"/>
<path fill-rule="evenodd" clip-rule="evenodd" d="M20 17.5C20 19.433 18.433 21 16.5 21C14.567 21 13 19.433 13 17.5C13 15.567 14.567 14 16.5 14C18.433 14 20 15.567 20 17.5ZM14.75 18.1782V19.0532H15.625L17.375 17.3032L16.5 16.4282L14.75 18.1782ZM16.9283 15.9723L16.6207 16.3103L17.5338 17.1415L17.8415 16.8035C17.953 16.681 17.9441 16.4913 17.8215 16.3797L17.3521 15.9524C17.2296 15.8409 17.0398 15.8498 16.9283 15.9723Z" fill="black"/>
</svg>
